<svg width="20" height="20" viewBox="0 0 20 20" fill="none" xmlns="http://www.w3.org/2000/svg">
<g clip-path="url(#clip0_2_211)">
<path d="M10 20C15.5228 20 20 15.5228 20 10C20 4.47715 15.5228 0 10 0C4.47715 0 0 4.47715 0 10C0 15.5228 4.47715 20 10 20Z" fill="#1F91FF"/>
</g>
<path fill-rule="evenodd" clip-rule="evenodd" d="M4.61928 8.62968C4.65556 8.59331 4.69867 8.56444 4.74613 8.54475C4.79358 8.52506 4.84446 8.51492 4.89584 8.51492C4.94722 8.51492 4.9981 8.52506 5.04555 8.54475C5.09301 8.56444 5.13612 8.59331 5.1724 8.62968L9.58334 13.0414L13.9943 8.62968C14.0306 8.59336 14.0737 8.56456 14.1212 8.5449C14.1686 8.52524 14.2195 8.51513 14.2708 8.51513C14.3222 8.51513 14.3731 8.52524 14.4205 8.5449C14.468 8.56456 14.5111 8.59336 14.5474 8.62968C14.5837 8.666 14.6125 8.70912 14.6322 8.75657C14.6518 8.80402 14.662 8.85488 14.662 8.90625C14.662 8.95761 14.6518 9.00847 14.6322 9.05592C14.6125 9.10337 14.5837 9.14649 14.5474 9.18281L9.8599 13.8703C9.82362 13.9067 9.78051 13.9355 9.73305 13.9552C9.6856 13.9749 9.63472 13.9851 9.58334 13.9851C9.53196 13.9851 9.48108 13.9749 9.43363 13.9552C9.38617 13.9355 9.34306 13.9067 9.30678 13.8703L4.61928 9.18281C4.5829 9.14652 4.55404 9.10342 4.53435 9.05596C4.51465 9.0085 4.50452 8.95763 4.50452 8.90625C4.50452 8.85487 4.51465 8.80399 4.53435 8.75653C4.55404 8.70908 4.5829 8.66597 4.61928 8.62968Z" fill="white"/>
<defs>
<clipPath id="clip0_2_211">
<rect width="20" height="20" fill="white"/>
</clipPath>
</defs>
</svg>
