<svg width="50" height="21" viewBox="0 0 50 21" fill="none" xmlns="http://www.w3.org/2000/svg">
<g clip-path="url(#clip0_6_37)">
<path d="M14.6276 1.25C13.9223 1.25 13.2458 1.51339 12.747 1.98223C12.2483 2.45107 11.9681 3.08696 11.9681 3.75V8.75C12.6734 8.75 13.3499 9.01339 13.8487 9.48223C14.3474 9.95107 14.6276 10.587 14.6276 11.25V17.5C14.6276 18.163 14.3474 18.7989 13.8487 19.2678C13.3499 19.7366 12.6734 20 11.9681 20H3.98935C3.28398 20 2.60751 19.7366 2.10874 19.2678C1.60998 18.7989 1.32977 18.163 1.32977 17.5V11.25C1.32977 10.587 1.60998 9.95107 2.10874 9.48223C2.60751 9.01339 3.28398 8.75 3.98935 8.75H10.6383V3.75C10.6383 2.75544 11.0586 1.80161 11.8067 1.09835C12.5549 0.395088 13.5696 0 14.6276 0C15.6857 0 16.7004 0.395088 17.4486 1.09835C18.1967 1.80161 18.617 2.75544 18.617 3.75V8.75C18.617 8.91576 18.547 9.07473 18.4223 9.19194C18.2976 9.30915 18.1285 9.375 17.9521 9.375C17.7758 9.375 17.6067 9.30915 17.482 9.19194C17.3573 9.07473 17.2872 8.91576 17.2872 8.75V3.75C17.2872 3.08696 17.007 2.45107 16.5082 1.98223C16.0095 1.51339 15.333 1.25 14.6276 1.25Z" fill="black"/>
</g>
<path d="M39.3617 1.25C40.0671 1.25 40.7435 1.51339 41.2423 1.98223C41.7411 2.45107 42.0213 3.08696 42.0213 3.75V8.75H36.7021V3.75C36.7021 3.08696 36.9823 2.45107 37.4811 1.98223C37.9799 1.51339 38.6563 1.25 39.3617 1.25ZM43.3511 8.75V3.75C43.3511 2.75544 42.9308 1.80161 42.1826 1.09835C41.4345 0.395088 40.4198 0 39.3617 0C38.3037 0 37.289 0.395088 36.5408 1.09835C35.7926 1.80161 35.3723 2.75544 35.3723 3.75V8.75C34.667 8.75 33.9905 9.01339 33.4917 9.48223C32.993 9.95107 32.7128 10.587 32.7128 11.25V17.5C32.7128 18.163 32.993 18.7989 33.4917 19.2678C33.9905 19.7366 34.667 20 35.3723 20H43.3511C44.0564 20 44.7329 19.7366 45.2317 19.2678C45.7304 18.7989 46.0106 18.163 46.0106 17.5V11.25C46.0106 10.587 45.7304 9.95107 45.2317 9.48223C44.7329 9.01339 44.0564 8.75 43.3511 8.75Z" fill="black"/>
<path d="M23.988 17.5963L27.7226 15.0124C27.8127 14.9623 27.8874 14.8911 27.9393 14.8056C27.9912 14.7201 28.0184 14.6234 28.0184 14.525C28.0184 14.4266 27.9912 14.3299 27.9393 14.2445C27.8874 14.159 27.8127 14.0877 27.7226 14.0377L23.989 11.4538C23.8978 11.4033 23.794 11.3763 23.6881 11.3757C23.5822 11.3752 23.4781 11.4009 23.3863 11.4504C23.2945 11.5 23.2182 11.5714 23.1653 11.6576C23.1124 11.7438 23.0847 11.8416 23.0851 11.9412V12.8188H16.7553V16.2313H23.0851V17.1089C23.0851 17.5508 23.5924 17.8159 23.988 17.5963Z" fill="black"/>
<defs>
<clipPath id="clip0_6_37">
<rect width="21.2766" height="20" fill="white"/>
</clipPath>
</defs>
</svg>
