<svg width="18" height="28" viewBox="0 0 18 28" fill="none" xmlns="http://www.w3.org/2000/svg">
<path d="M9 1.75C9.92826 1.75 10.8185 2.11875 11.4749 2.77513C12.1313 3.4315 12.5 4.32174 12.5 5.25V12.25H5.5V5.25C5.5 4.32174 5.86875 3.4315 6.52513 2.77513C7.1815 2.11875 8.07174 1.75 9 1.75ZM14.25 12.25V5.25C14.25 3.85761 13.6969 2.52226 12.7123 1.53769C11.7277 0.553123 10.3924 0 9 0C7.60761 0 6.27226 0.553123 5.28769 1.53769C4.30312 2.52226 3.75 3.85761 3.75 5.25V12.25C2.82174 12.25 1.9315 12.6187 1.27513 13.2751C0.618749 13.9315 0.25 14.8217 0.25 15.75V24.5C0.25 25.4283 0.618749 26.3185 1.27513 26.9749C1.9315 27.6313 2.82174 28 3.75 28H14.25C15.1783 28 16.0685 27.6313 16.7249 26.9749C17.3813 26.3185 17.75 25.4283 17.75 24.5V15.75C17.75 14.8217 17.3813 13.9315 16.7249 13.2751C16.0685 12.6187 15.1783 12.25 14.25 12.25Z" fill="black"/>
</svg>
