<svg width="20" height="20" viewBox="0 0 20 20" fill="none" xmlns="http://www.w3.org/2000/svg">
<g clip-path="url(#clip0_39_812)">
<path fill-rule="evenodd" clip-rule="evenodd" d="M8.125 15C9.02784 15 9.92184 14.8222 10.7559 14.4767C11.5901 14.1312 12.348 13.6248 12.9864 12.9864C13.6248 12.348 14.1312 11.5901 14.4767 10.7559C14.8222 9.92184 15 9.02784 15 8.125C15 7.22216 14.8222 6.32817 14.4767 5.49405C14.1312 4.65994 13.6248 3.90204 12.9864 3.26364C12.348 2.62524 11.5901 2.11883 10.7559 1.77333C9.92184 1.42783 9.02784 1.25 8.125 1.25C6.30164 1.25 4.55295 1.97433 3.26364 3.26364C1.97433 4.55295 1.25 6.30164 1.25 8.125C1.25 9.94836 1.97433 11.697 3.26364 12.9864C4.55295 14.2757 6.30164 15 8.125 15ZM16.25 8.125C16.25 10.2799 15.394 12.3465 13.8702 13.8702C12.3465 15.394 10.2799 16.25 8.125 16.25C5.97012 16.25 3.90349 15.394 2.37976 13.8702C0.856024 12.3465 0 10.2799 0 8.125C0 5.97012 0.856024 3.90349 2.37976 2.37976C3.90349 0.856024 5.97012 0 8.125 0C10.2799 0 12.3465 0.856024 13.8702 2.37976C15.394 3.90349 16.25 5.97012 16.25 8.125Z" fill="#1D243A"/>
<path d="M12.9297 14.6775C12.9672 14.7275 13.0072 14.775 13.0522 14.8213L17.8647 19.6338C18.0991 19.8683 18.417 20.0001 18.7486 20.0003C19.0802 20.0004 19.3983 19.8688 19.6328 19.6344C19.8674 19.4 19.9992 19.082 19.9993 18.7504C19.9994 18.4189 19.8678 18.1008 19.6334 17.8663L14.8209 13.0538C14.7762 13.0085 14.7282 12.9667 14.6772 12.9288C14.1868 13.5974 13.5976 14.1874 12.9297 14.6788V14.6775Z" fill="#1D243A"/>
</g>
<defs>
<clipPath id="clip0_39_812">
<rect width="20" height="20" fill="white"/>
</clipPath>
</defs>
</svg>
