<svg width="106" height="135" viewBox="0 0 106 135" fill="none" xmlns="http://www.w3.org/2000/svg">
<path d="M63.5695 13.1764C63.5695 5.89028 57.6793 0 50.3932 0C43.1071 0 37.2168 5.90424 37.2168 13.1764C37.2168 18.1175 39.9386 22.4166 43.9585 24.6638L44.2377 15.9261C44.2377 12.3528 47.141 9.44957 50.7282 9.44957H51.0911C53.9106 9.44957 56.1997 11.7387 56.1997 14.5582V24.9988C60.5546 22.8493 63.5695 18.3687 63.5695 13.1764Z" fill="#1F91FF" fill-opacity="0.6"/>
<path d="M56.2003 14.5583C56.2003 11.7387 53.9112 9.44962 51.0917 9.44962H50.7288C47.1416 9.44962 44.2383 12.3529 44.2383 15.9261L43.9592 24.6639L43.359 43.9259C43.2194 44.5122 43.1356 57.9119 43.1356 57.9119C42.005 56.7533 40.7488 55.4413 39.6182 54.1711C36.9802 51.226 32.1228 49.23 28.8845 48.8671C27.1816 48.6716 25.8835 48.9089 25.0181 49.551C24.739 49.7604 24.4738 49.9977 24.2086 50.2489C22.5476 51.896 21.2913 54.548 22.4499 56.4881C22.9523 57.3396 23.8177 57.8979 24.739 58.4981C25.9533 59.2937 28.0051 60.1451 29.5405 62.1132C32.1228 65.4073 38.0968 72.7911 41.7677 76.7273C42.5215 77.2018 44.1406 78.821 44.9083 79.2258C47.2253 80.7053 49.1236 82.1011 49.7796 82.8548C50.2961 83.4411 53.325 84.9904 53.325 84.9904C55.7816 86.5397 60.2482 87.9914 65.3987 87.9914C70.5492 87.9914 75.2251 88.2985 78.6727 85.2556H78.8682L78.9519 85.0183C82.4693 81.794 84.6468 77.3414 84.6468 72.4003C84.6468 71.1859 84.6468 66.6775 84.6468 65.84V48.8391C84.6468 47.6806 84.3955 43.8143 81.1294 42.6418C79.5661 42.0835 78.0865 42.2928 76.8303 42.8372L76.5372 42.8512H76.4395C75.8811 40.7295 74.4574 39.3477 72.3637 38.9848C69.8373 38.5521 68.0786 39.3058 67.0318 40.0596C65.9849 37.8123 63.8772 36.6398 61.0438 36.8771C58.9082 37.0586 57.3309 38.1054 56.1724 39.4873V24.9709V14.5583H56.2003Z" fill="white"/>
<path d="M4.83859 114.07C4.83859 113.488 5.088 112.998 5.58682 112.599C6.08565 112.183 6.784 111.975 7.68188 111.975C8.48 111.975 9.2698 112.133 10.0513 112.449C10.8328 112.748 11.6226 113.189 12.4207 113.771L14.0668 111.451C13.1689 110.736 12.2046 110.196 11.1736 109.83C10.1594 109.448 9.01208 109.256 7.73177 109.256C6.86714 109.256 6.06902 109.381 5.33741 109.631C4.6058 109.863 3.97396 110.204 3.44188 110.653C2.92643 111.102 2.51906 111.643 2.21976 112.274C1.92047 112.89 1.77082 113.58 1.77082 114.344C1.77082 115.159 1.89553 115.849 2.14494 116.415C2.41098 116.98 2.7851 117.462 3.26729 117.861C3.76612 118.26 4.37302 118.593 5.088 118.859C5.81961 119.125 6.65098 119.366 7.58212 119.582C8.39686 119.782 9.05365 119.973 9.55247 120.156C10.0679 120.339 10.467 120.538 10.7496 120.754C11.0489 120.954 11.2485 121.178 11.3482 121.428C11.4646 121.677 11.5228 121.96 11.5228 122.276C11.5228 122.958 11.2402 123.498 10.6748 123.897C10.1261 124.296 9.37788 124.496 8.43012 124.496C7.33271 124.496 6.35169 124.304 5.48706 123.922C4.62243 123.523 3.76612 122.958 2.91812 122.226L1.07247 124.421C2.12 125.368 3.25898 126.075 4.48941 126.541C5.71984 126.99 7.00847 127.214 8.35529 127.214C9.2698 127.214 10.1095 127.098 10.8744 126.865C11.6392 126.632 12.296 126.291 12.8447 125.842C13.3934 125.393 13.8174 124.845 14.1167 124.196C14.4326 123.548 14.5906 122.808 14.5906 121.976C14.5906 121.245 14.4659 120.613 14.2165 120.081C13.9837 119.532 13.6345 119.058 13.1689 118.659C12.7034 118.244 12.1131 117.894 11.3981 117.612C10.6998 117.329 9.89333 117.071 8.97882 116.839C8.14745 116.639 7.45741 116.448 6.90871 116.265C6.37663 116.082 5.95263 115.883 5.63671 115.666C5.33741 115.45 5.12957 115.217 5.01318 114.968C4.89678 114.719 4.83859 114.419 4.83859 114.07ZM27.7317 113.746H25.1627L22.2446 122.824L19.6008 113.796H16.5081L20.7731 127.064H23.4667L26.4347 118.061L29.3778 127.064H32.0714L36.3863 113.796H33.3684L30.6747 122.824L27.7317 113.746ZM42.3803 111.776V108.907H39.138V111.776H42.3803ZM42.2806 126.965V113.796H39.2627V126.965H42.2806ZM59.8425 120.38C59.8425 119.283 59.6679 118.31 59.3187 117.462C58.9695 116.614 58.5039 115.899 57.922 115.317C57.3567 114.719 56.7082 114.27 55.9766 113.97C55.245 113.671 54.4884 113.521 53.7069 113.521C52.6428 113.521 51.7532 113.763 51.0382 114.245C50.3232 114.71 49.7247 115.292 49.2425 115.991V113.796H46.2246V130.955H49.2425V124.92C49.708 125.535 50.2983 126.075 51.0133 126.541C51.7283 127.006 52.6261 127.239 53.7069 127.239C54.4884 127.239 55.245 127.089 55.9766 126.79C56.7248 126.491 57.3816 126.05 57.9469 125.468C58.5289 124.87 58.9861 124.146 59.3187 123.298C59.6679 122.45 59.8425 121.478 59.8425 120.38ZM56.7747 120.38C56.7747 121.029 56.6749 121.619 56.4754 122.151C56.2759 122.667 56.0015 123.107 55.6523 123.473C55.3198 123.839 54.9207 124.121 54.4552 124.321C54.0062 124.52 53.524 124.62 53.0086 124.62C52.4931 124.62 52.0026 124.52 51.537 124.321C51.0715 124.121 50.6641 123.839 50.3149 123.473C49.9658 123.091 49.6831 122.642 49.4669 122.126C49.2674 121.611 49.1676 121.029 49.1676 120.38C49.1676 119.732 49.2674 119.15 49.4669 118.634C49.6831 118.119 49.9658 117.678 50.3149 117.312C50.6641 116.93 51.0715 116.639 51.537 116.44C52.0026 116.24 52.4931 116.14 53.0086 116.14C53.524 116.14 54.0062 116.24 54.4552 116.44C54.9207 116.639 55.3198 116.922 55.6523 117.288C56.0015 117.653 56.2759 118.102 56.4754 118.634C56.6749 119.15 56.7747 119.732 56.7747 120.38ZM65.2278 121.453H74.905C74.9216 121.303 74.9299 121.162 74.9299 121.029C74.9465 120.896 74.9549 120.763 74.9549 120.63C74.9549 119.682 74.8218 118.776 74.5558 117.911C74.2898 117.046 73.8907 116.29 73.3586 115.641C72.8432 114.993 72.1864 114.478 71.3883 114.095C70.6068 113.713 69.6923 113.521 68.6447 113.521C67.697 113.521 66.8324 113.704 66.0509 114.07C65.2694 114.436 64.5876 114.935 64.0057 115.567C63.4404 116.182 62.9997 116.905 62.6838 117.736C62.3679 118.568 62.2099 119.457 62.2099 120.405C62.2099 121.436 62.3845 122.376 62.7337 123.224C63.0829 124.055 63.5567 124.77 64.1553 125.368C64.7705 125.967 65.4855 126.433 66.3003 126.765C67.1316 127.098 68.0212 127.264 68.969 127.264C70.1828 127.264 71.222 127.04 72.0866 126.591C72.9679 126.142 73.7244 125.543 74.3563 124.795L72.5855 123.224C72.0534 123.739 71.513 124.13 70.9643 124.396C70.4156 124.662 69.7671 124.795 69.0189 124.795C68.0378 124.795 67.2065 124.512 66.5247 123.947C65.843 123.365 65.4107 122.534 65.2278 121.453ZM65.2029 119.457C65.3359 118.427 65.7017 117.595 66.3003 116.963C66.9155 116.315 67.6887 115.991 68.6198 115.991C69.1186 115.991 69.5593 116.082 69.9417 116.265C70.3407 116.448 70.6816 116.697 70.9643 117.013C71.2469 117.312 71.4714 117.678 71.6377 118.111C71.804 118.526 71.912 118.975 71.9619 119.457H65.2029Z" fill="white"/>
<path fill-rule="evenodd" clip-rule="evenodd" d="M82.6172 122.424C82.6172 122.217 82.6993 122.019 82.8455 121.872C82.9916 121.726 83.1899 121.644 83.3966 121.644H101.78L96.8742 116.74C96.7278 116.594 96.6456 116.395 96.6456 116.188C96.6456 115.981 96.7278 115.783 96.8742 115.636C97.0205 115.49 97.219 115.408 97.426 115.408C97.633 115.408 97.8315 115.49 97.9778 115.636L104.213 121.872C104.286 121.944 104.343 122.03 104.383 122.125C104.422 122.219 104.442 122.321 104.442 122.424C104.442 122.526 104.422 122.628 104.383 122.722C104.343 122.817 104.286 122.903 104.213 122.975L97.9778 129.211C97.8315 129.357 97.633 129.439 97.426 129.439C97.219 129.439 97.0205 129.357 96.8742 129.211C96.7278 129.064 96.6456 128.866 96.6456 128.659C96.6456 128.452 96.7278 128.253 96.8742 128.107L101.78 123.203H83.3966C83.1899 123.203 82.9916 123.121 82.8455 122.975C82.6993 122.828 82.6172 122.63 82.6172 122.424Z" fill="white"/>
</svg>
