<svg width="22" height="28" viewBox="0 0 22 28" fill="none" xmlns="http://www.w3.org/2000/svg">
<path d="M4 0H13.2628C13.7268 9.91155e-05 14.1719 0.184539 14.5 0.51275L20.9872 7C21.3155 7.32811 21.4999 7.77316 21.5 8.23725V24.5C21.5 25.4283 21.1313 26.3185 20.4749 26.9749C19.8185 27.6313 18.9283 28 18 28H4C3.07174 28 2.1815 27.6313 1.52513 26.9749C0.868749 26.3185 0.5 25.4283 0.5 24.5V3.5C0.5 2.57174 0.868749 1.6815 1.52513 1.02513C2.1815 0.368749 3.07174 0 4 0V0ZM13.625 2.625V6.125C13.625 6.58913 13.8094 7.03425 14.1376 7.36244C14.4658 7.69063 14.9109 7.875 15.375 7.875H18.875L13.625 2.625Z" fill="#1D243A"/>
</svg>
